# xmcd CD database file
#
# Track frame offsets:
#	150
#	25124
#	46272
#	71257
#	95495
#	118687
#	141483
#	163229
#
# Disc length: 2480 seconds
#
# Revision: 2
# Processed by: cddbd v1.5.2PL0 Copyright (c) Steve Scherf et al.
# Submitted via: CDex 1.51
#
DISCID=6b09ae08
DTITLE=Grupo Niche - Tapando El Hueco
DYEAR=1989
DGENRE=Salsa
TTITLE0=Nuestro Sueño
TTITLE1=Como Podré Disimular
TTITLE2=Tapando El Hueco
TTITLE3=Maria Concepción
TTITLE4=Las Mujeres Están De Moda
TTITLE5=Mi Valle Del Cauca
TTITLE6=El Amor Vendrá
TTITLE7=Brilla El Sol
EXTD=YEAR: 1989
EXTT0=
EXTT1=
EXTT2=
EXTT3=
EXTT4=
EXTT5=
EXTT6=
EXTT7=
PLAYORDER=
